# xmcd
#
# Track frame offsets: 
#        150
#        10596
#        23697
#        34798
#        46589
#        58283
#        79299
#        96176
#        110717
#        124485
#        137578
#        150746
#        163769
#        173713
#        188509
#        210959
#        222717
#        233110
#        248446
#        262210
#        286569
#        300676
#        312545
#        325036
#        339015
#
# Disc length: 4701 seconds
#
# Revision: 1
# Processed by: cddbd v1.5.2PL0 Copyright (c) Steve Scherf et al.
# Submitted via: ExactAudioCopy v1.0b3
#
DISCID=54125b19
DTITLE=Various Artist - Dust Bowl Blues [Disc 1]
DYEAR=2011
DGENRE=Blues
TTITLE0=Guthrie, Woody - This Land Is Your Land
TTITLE1=Guthrie, Woody - Grand Coulee Damn
TTITLE2=Guthrie, Woody - Pastures Of Plenty
TTITLE3=Guthrie, Woody - Do Re Mi
TTITLE4=Baez, Joan - Wildwood Flower
TTITLE5=Baez, Joan - All My Trials
TTITLE6=Baez, Joan - East Virginia
TTITLE7=Baez, Joan - Donna Donna
TTITLE8=Lead Belly - Where Did You Sleep Last Night
TTITLE9=Lead Belly - Goodnight Irene
TTITLE10=Lead Belly - Take This Hammer
TTITLE11=Odetta - Gallow's Pole
TTITLE12=Odetta - Another Man Done Gone
TTITLE13=Odetta - Jack O Diamonds
TTITLE14=Seeger, Pete - Gypsy Davey
TTITLE15=Seeger, Pete - Buffalo Skinners
TTITLE16=Seeger, Pete - We Shall Not Be Moved
TTITLE17=Elliot, Ramblin' Jack - Hard Travellin'
TTITLE18=Elliot, Ramblin' Jack - Pretty Boy Floyd
TTITLE19=Elliot, Ramblin' Jack - Muleskinner Blues
TTITLE20=Van Ronk, Dave - In The Pines
TTITLE21=Van Ronk, Dave - Winnin' Boy
TTITLE22=Van Ronk, Dave - Gambler's Blues
TTITLE23=White, Josh - Jesus Make Up My Dying Bed
TTITLE24=White, Josh - John Hardy
EXTD=
EXTT0=
EXTT1=
EXTT2=
EXTT3=
EXTT4=
EXTT5=
EXTT6=
EXTT7=
EXTT8=
EXTT9=
EXTT10=
EXTT11=
EXTT12=
EXTT13=
EXTT14=
EXTT15=
EXTT16=
EXTT17=
EXTT18=
EXTT19=
EXTT20=
EXTT21=
EXTT22=
EXTT23=
EXTT24=
PLAYORDER=
